<svg width="150" height="64" viewBox="0 0 150 64" fill="none" xmlns="http://www.w3.org/2000/svg">
<path d="M5.72479 23.0091V13.6313H14.1219V23.0091H19.8468V0.450835H14.1219V8.47536H5.72479V0.450835H0V23.0091H5.72479ZM28.3395 23.0091L30.2163 18.24H38.4854L40.362 23.0091H46.5014L37.1498 0.322129H31.647L22.2961 23.0091H28.3395ZM34.3512 7.57282L36.6727 13.599H32.0289L34.3512 7.57282ZM58.2059 23.1378L67.3347 0.450835H61.1002L55.5344 15.1456L49.9998 0.450835H43.6702L52.7671 23.1378H58.2059ZM70.547 23.0091L72.4236 18.24H80.6929L82.5695 23.0091H88.7088L79.3571 0.322129H73.8545L64.5034 23.0091H70.547ZM76.5586 7.57282L78.8802 13.599H74.2363L76.5586 7.57282ZM99.0143 23.4599C101.686 23.4599 103.88 22.8157 105.566 21.4946C107.252 20.1729 108.111 18.4327 108.111 16.2092C108.111 14.2756 107.507 12.7611 106.298 11.6975C105.089 10.6341 103.403 9.73225 101.272 9.02327C100.35 8.73277 98.8866 8.34666 98.2188 8.12073L97.2009 7.76624C96.5331 7.47647 96.279 7.15435 96.279 6.73514C96.279 5.73625 97.2648 5.25231 99.2047 5.25231C100.477 5.25231 101.781 5.47809 103.149 5.8973C104.516 6.31577 105.694 6.83148 106.68 7.44411V1.86894C104.357 0.611908 101.845 0 99.1414 0C93.7977 0 90.3944 2.41685 90.3944 6.7675C90.3944 8.08837 90.7764 9.28069 91.1894 10.0869C91.667 10.8922 92.7161 11.6652 93.3527 12.1492C93.7026 12.3743 94.1796 12.6001 94.8155 12.8582L96.279 13.4378L97.9008 13.9211L99.9044 14.5337C100.286 14.6624 101.082 14.8882 101.336 15.114C101.845 15.4686 102.195 15.7584 102.195 16.435C102.195 17.6273 101.05 18.2076 98.7915 18.2076C97.3599 18.2076 95.8333 17.9171 94.2116 17.3052C92.5891 16.6924 91.3172 15.9842 90.3944 15.114V21.0431C92.7161 22.6546 95.5791 23.4599 99.0143 23.4599ZM5.72479 63.5492V54.1714H14.1219V63.5492H19.8468V40.9909H14.1219V49.0154H5.72479V40.9909H0V63.5492H5.72479ZM30.948 56.8464C29.8343 55.6542 29.2935 54.1067 29.2935 52.2701C29.2935 50.4335 29.8343 48.8867 30.948 47.6944C32.0609 46.5014 33.4604 45.8895 35.1461 45.8895C36.8317 45.8895 38.1994 46.5014 39.3131 47.6944C40.4259 48.8867 40.9987 50.4335 40.9987 52.2701C40.9987 54.1067 40.4259 55.6542 39.3131 56.8464C38.1994 58.0387 36.8317 58.6506 35.1461 58.6506C33.4604 58.6506 32.0609 58.0387 30.948 56.8464ZM43.5431 60.5843C45.7697 58.2961 46.8825 55.5248 46.8825 52.2701C46.8825 49.0154 45.7697 46.244 43.5431 43.9558C41.3167 41.6677 38.5174 40.5401 35.1461 40.5401C31.7747 40.5401 28.9756 41.6677 26.7491 43.9558C24.5225 46.244 23.4097 49.0154 23.4097 52.2701C23.4097 55.5248 24.5225 58.2961 26.7491 60.5843C28.9756 62.8726 31.7747 64 35.1461 64C38.5174 64 41.3167 62.8726 43.5431 60.5843ZM66.8578 63.5492V58.4572H56.1704V40.9909H50.4455V63.5492H66.8578ZM78.6901 63.5492C82.3154 63.5492 85.2736 62.5181 87.564 60.4232C89.8536 58.3285 90.9992 55.5895 90.9992 52.2701C90.9992 48.9507 89.8536 46.244 87.564 44.1492C85.2736 42.0545 82.3154 40.9909 78.6901 40.9909H69.8159V63.5492H78.6901ZM75.5409 46.0829H78.2761C82.6022 46.0829 85.0827 48.3063 85.0827 52.2701C85.0827 56.2338 82.6022 58.4572 78.2761 58.4572H75.5409V46.0829ZM100.413 63.5492V40.9909H94.6885V63.5492H100.413ZM110.433 63.5492V51.0778L120.293 63.5492H125.032V40.9909H119.434V53.3983L109.701 40.9909H104.803V63.5492H110.433ZM140.713 64C142.653 64 144.466 63.6455 146.152 62.9689C147.837 62.2598 149.11 61.4221 150 60.4232V50.4012H144.243V57.7806C143.384 58.4895 142.208 58.844 140.713 58.844C138.963 58.844 137.501 58.2645 136.292 57.1038C135.083 55.944 134.478 54.3648 134.478 52.3672C134.478 50.4335 135.115 48.8867 136.387 47.6944C137.66 46.5014 139.313 45.8895 141.349 45.8895C143.352 45.8895 145.388 46.4697 147.424 47.5973V42.1516C145.42 41.088 143.257 40.5401 140.935 40.5401C137.373 40.5401 134.415 41.6353 132.093 43.8271C129.771 46.0182 128.595 48.822 128.595 52.2701C128.595 55.6859 129.739 58.4896 132.061 60.7131C134.383 62.9049 137.278 64 140.713 64Z" fill="white"/>
</svg>
